<?xml version="1.0" standalone="no"?>
<!DOCTYPE svg PUBLIC "-//W3C//DTD SVG 20010904//EN"
 "http://www.w3.org/TR/2001/REC-SVG-20010904/DTD/svg10.dtd">
<svg version="1.0" xmlns="http://www.w3.org/2000/svg"
 width="768.000000pt" height="768.000000pt" viewBox="0 0 768.000000 768.000000"
 preserveAspectRatio="xMidYMid meet">
<metadata>
Created by potrace 1.11, written by Peter Selinger 2001-2013
</metadata>
<g transform="translate(0.000000,768.000000) scale(0.100000,-0.100000)"
fill="#000000" stroke="none">
<path d="M3542 7238 c-23 -30 -32 -52 -32 -79 0 -33 -4 -38 -32 -48 -43 -15
-68 -40 -68 -67 0 -12 -16 -41 -35 -64 -20 -23 -37 -57 -40 -78 -3 -20 -10
-53 -15 -72 -13 -46 7 -76 71 -104 29 -13 47 -26 44 -33 -3 -7 -8 -19 -11 -27
-15 -38 85 -65 111 -29 12 16 14 16 39 -1 15 -9 26 -23 23 -29 -2 -7 -38 -24
-80 -38 -41 -14 -82 -30 -89 -36 -7 -6 -32 -16 -56 -22 -43 -12 -56 -26 -95
-102 -29 -57 -58 -76 -147 -93 -196 -39 -755 -377 -1004 -607 -88 -81 -348
-365 -406 -444 -25 -33 -70 -91 -101 -130 -59 -72 -152 -222 -208 -333 -18
-35 -52 -96 -77 -135 -24 -39 -44 -82 -44 -95 0 -13 -4 -20 -10 -17 -5 3 -16
-9 -24 -27 -27 -63 -36 -83 -67 -138 -16 -30 -43 -100 -60 -155 -38 -123 -47
-279 -30 -491 23 -296 103 -471 245 -538 62 -30 201 -45 236 -26 32 17 109 24
124 10 8 -6 17 -41 21 -78 15 -146 33 -228 101 -463 4 -13 -10 -18 -73 -29
-43 -6 -130 -30 -195 -51 -64 -22 -187 -55 -275 -73 -194 -42 -257 -65 -336
-124 -90 -69 -99 -123 -27 -165 34 -20 44 -21 34 -4 -4 6 1 5 12 -4 10 -9 34
-21 51 -27 18 -6 48 -23 67 -37 23 -18 55 -29 97 -35 35 -5 65 -7 67 -5 3 2
17 -2 33 -11 27 -13 29 -13 29 3 1 17 2 17 15 -1 10 -14 21 -17 41 -12 16 4
30 3 34 -4 13 -21 84 -30 182 -24 95 6 207 -10 262 -39 11 -5 46 -11 79 -13
33 -2 65 -8 71 -14 21 -16 124 -24 140 -11 8 7 24 10 36 6 19 -6 17 -10 -26
-66 -131 -166 -426 -409 -784 -644 -104 -68 -160 -114 -244 -199 -174 -176
-228 -259 -228 -351 -1 -130 95 -217 294 -265 96 -23 362 -43 588 -44 149 -1
157 0 213 26 77 36 200 111 367 223 214 143 458 275 617 334 111 41 176 75
222 116 21 19 46 35 54 35 36 0 65 22 64 48 -3 34 26 41 41 10 8 -18 11 -19
11 -5 1 9 4 17 9 17 4 0 15 23 25 50 12 35 26 54 42 60 23 9 27 19 41 110 3
25 11 53 16 63 14 26 152 133 182 141 42 10 89 -17 137 -78 24 -32 65 -70 90
-85 38 -24 49 -38 67 -89 28 -77 108 -199 156 -239 20 -16 56 -36 79 -42 23
-7 89 -34 147 -61 58 -27 161 -65 230 -85 69 -20 141 -46 160 -57 19 -11 100
-44 180 -73 80 -29 183 -67 230 -85 47 -17 135 -44 195 -60 61 -16 141 -38
180 -49 38 -12 79 -21 90 -21 11 0 37 -5 58 -11 30 -8 42 -18 53 -44 18 -44
44 -57 97 -51 23 3 141 11 262 17 121 6 258 17 305 25 185 31 337 99 390 174
31 43 38 125 16 168 -49 95 -224 256 -444 408 -64 44 -146 101 -182 126 -74
52 -118 75 -322 168 -183 84 -376 202 -471 287 -105 96 -103 92 -59 119 20 13
53 24 74 24 20 0 39 4 43 9 3 6 26 13 50 17 25 3 48 10 51 15 3 5 18 9 35 9
19 0 29 5 29 15 0 10 10 15 34 15 18 0 39 7 47 16 7 8 21 13 31 10 11 -2 31
-1 46 4 15 5 97 11 182 14 106 3 154 8 152 15 -4 20 30 25 44 7 15 -21 56 -13
47 10 -3 7 0 14 6 14 7 0 14 -7 17 -15 4 -10 20 -15 46 -15 32 0 41 4 45 20 6
21 30 22 26 1 -5 -21 25 -11 41 14 18 27 42 35 33 10 -12 -28 14 -26 42 4 20
21 38 31 59 31 64 0 125 85 101 141 -6 16 -16 29 -21 29 -5 0 -35 24 -66 54
-69 65 -91 77 -218 114 -168 50 -303 74 -378 66 l-66 -7 0 34 c0 19 12 54 26
79 31 53 87 245 103 349 7 41 14 78 17 83 4 5 33 7 68 3 33 -4 90 -2 126 4 55
9 69 16 92 43 15 18 28 27 28 21 0 -18 20 -16 20 1 0 8 16 27 35 42 19 14 35
33 35 41 0 10 6 12 20 8 15 -5 20 -2 20 11 0 9 23 58 50 109 28 51 50 104 50
118 0 15 10 45 21 67 20 39 21 50 16 263 -5 220 -10 252 -57 442 -28 114 -86
269 -176 473 -77 174 -114 245 -189 357 -51 77 -114 165 -141 195 -26 30 -74
91 -108 135 -119 157 -242 263 -494 425 -399 256 -697 372 -959 371 -110 0
-133 9 -133 53 0 33 -49 105 -108 157 -54 49 -133 79 -208 79 -50 0 -114 18
-114 32 0 5 7 8 14 5 9 -4 17 2 21 14 4 10 11 19 16 19 5 0 6 17 3 40 l-7 41
27 -12 c22 -10 29 -9 44 4 10 10 26 17 35 17 18 0 37 29 37 58 0 10 -11 29
-25 42 -28 27 -31 46 -10 74 33 44 6 136 -40 136 -18 0 -35 31 -35 63 0 43
-31 70 -91 78 -30 5 -69 11 -86 15 -26 5 -39 1 -64 -20 -44 -37 -51 -35 -93
32 -15 24 -34 42 -44 42 -10 0 -32 -19 -50 -42z m-335 -1034 c-6 -6 -57 17
-57 26 0 3 12 11 28 16 24 9 27 7 30 -14 2 -13 1 -26 -1 -28z m1178 16 c-32
-21 -41 -20 -32 5 4 8 18 15 34 15 l28 0 -30 -20z m216 -44 c35 -13 96 -32
134 -41 39 -10 77 -23 85 -31 10 -9 20 -10 30 -4 26 16 38 11 49 -21 8 -23 15
-30 27 -25 15 6 93 -46 103 -68 2 -4 7 -2 12 5 6 11 17 6 46 -21 21 -20 56
-44 78 -55 22 -11 46 -28 53 -37 7 -10 22 -18 32 -18 10 0 23 -7 28 -16 6 -11
11 -13 16 -5 4 6 18 -2 38 -24 16 -19 41 -38 54 -41 13 -3 24 -12 24 -20 0 -8
6 -14 13 -14 16 -1 57 -35 57 -49 0 -6 9 -15 19 -21 16 -8 20 -6 24 8 3 12 9
7 21 -20 9 -21 21 -38 26 -38 5 0 18 -9 29 -21 11 -12 24 -18 30 -14 6 3 11 0
11 -7 1 -14 34 -58 44 -58 13 0 93 -87 104 -113 7 -16 20 -31 30 -34 20 -6
102 -109 154 -194 20 -33 52 -79 70 -102 19 -23 47 -66 63 -94 15 -29 36 -55
46 -58 14 -5 19 -16 19 -43 0 -42 8 -57 30 -57 9 0 17 -14 21 -35 3 -19 11
-47 17 -62 17 -41 -14 -37 -36 4 -9 18 -28 44 -42 58 -14 14 -38 42 -54 63
-41 56 -166 177 -182 177 -7 0 -36 20 -65 46 -28 25 -58 44 -67 42 -10 -2 -27
9 -39 23 -13 15 -34 30 -48 33 -14 4 -25 11 -25 16 0 6 -7 10 -15 10 -8 0 -15
3 -15 8 0 4 -26 23 -57 42 -32 18 -87 55 -123 81 -36 26 -83 52 -105 58 -22 6
-49 17 -60 25 -11 9 -28 16 -37 16 -33 0 -46 40 -51 165 -7 142 -21 200 -54
222 -22 15 -39 13 -251 -31 -257 -53 -420 -93 -672 -166 -179 -51 -250 -62
-250 -36 0 23 17 30 225 98 308 102 494 138 716 138 68 0 109 4 117 12 21 21
13 47 -20 65 -28 14 -59 17 -197 15 -167 -2 -258 -12 -345 -37 -58 -17 -74
-11 -25 9 101 43 133 152 79 273 -10 24 -15 43 -11 43 5 0 37 -11 72 -24z
m-534 -36 c43 -38 84 -43 129 -13 22 14 23 13 40 -64 10 -43 18 -118 18 -168
l1 -90 -65 -21 c-83 -27 -148 -60 -230 -119 -77 -54 -85 -54 -182 11 -36 24
-81 47 -100 50 -65 13 -68 17 -61 89 6 70 -11 115 -45 115 -43 0 -56 -64 -26
-122 l16 -30 -44 7 c-24 4 -74 17 -113 29 -93 29 -115 59 -115 160 0 81 9 106
30 81 20 -24 56 -18 93 15 41 36 53 37 110 9 59 -29 103 -20 163 31 53 47 72
49 104 15 22 -24 75 -45 112 -45 10 0 40 20 68 45 28 25 53 45 57 45 3 0 21
-13 40 -30z m-849 -26 c21 -14 23 -21 17 -52 -9 -50 -14 -56 -34 -38 -9 8 -33
22 -53 30 -30 13 -38 13 -54 1 -18 -13 -18 -14 0 -34 11 -12 37 -26 58 -32 55
-14 78 -41 78 -89 0 -32 -4 -40 -19 -40 -13 0 -20 9 -25 30 -6 31 -7 31 -114
76 -66 27 -81 71 -39 119 44 52 130 65 185 29z m1262 -4 c26 -26 26 -80 1
-112 -17 -21 -127 -88 -145 -88 -3 0 -6 16 -6 35 0 27 6 38 28 52 41 25 54 44
41 60 -15 17 -39 17 -66 -2 -20 -14 -22 -13 -32 17 -15 42 -14 56 2 34 13 -17
15 -17 52 3 50 27 99 27 125 1z m-1546 -29 c-9 -53 20 -147 56 -182 l28 -29
-166 2 c-158 3 -171 1 -239 -24 -40 -14 -86 -38 -104 -52 -30 -25 -59 -34 -59
-18 0 13 137 111 156 112 5 0 20 13 32 29 12 17 48 42 81 56 33 15 68 36 77
46 9 11 25 19 35 19 10 0 23 9 29 20 6 11 17 20 25 20 8 0 20 9 27 20 20 31
29 24 22 -19z m1436 -235 c0 -2 -9 -6 -20 -9 -15 -4 -20 0 -20 14 0 17 3 18
20 9 11 -6 20 -12 20 -14z m-1971 -131 c-16 -37 -23 -78 -28 -169 l-6 -120
-35 -12 c-19 -7 -80 -26 -135 -44 -103 -34 -164 -63 -272 -132 -38 -24 -71
-38 -85 -36 -29 4 -30 22 0 26 12 2 22 8 22 13 0 5 14 21 31 36 17 16 37 40
45 55 8 14 33 39 56 55 24 16 48 39 54 51 11 22 94 109 94 98 0 -3 31 26 69
63 38 38 87 81 110 95 22 15 41 33 41 41 0 8 9 15 19 15 11 0 23 5 26 11 17
27 13 -3 -6 -46z m722 35 c178 -10 289 -33 494 -103 108 -36 121 -51 84 -88
-19 -19 -29 -21 -78 -16 -72 7 -387 78 -562 127 -75 21 -187 46 -250 55 -63 9
-121 21 -129 26 -20 12 232 11 441 -1z m789 -235 c0 -17 -27 -19 -81 -8 l-34
7 30 7 c54 12 85 10 85 -6z m-1249 -143 c-14 -27 -142 -156 -233 -236 -80 -69
-100 -104 -77 -132 16 -20 42 -13 116 30 96 57 358 166 415 173 l52 6 -19 -26
c-11 -14 -78 -78 -148 -143 -130 -118 -157 -153 -157 -199 0 -30 -4 -30 -84
-8 -39 10 -102 16 -176 17 -99 0 -130 -4 -226 -31 -132 -37 -152 -48 -208
-122 -68 -89 -91 -130 -131 -236 -44 -118 -51 -132 -79 -164 l-21 -24 23 6
c26 6 26 2 7 -79 -29 -125 -38 -281 -31 -559 3 -148 9 -285 12 -302 5 -28 3
-33 -13 -33 -11 0 -38 13 -60 29 -22 16 -49 32 -61 35 -12 4 -22 13 -22 21 0
8 -9 17 -20 20 -11 3 -20 11 -20 16 0 6 -15 16 -34 24 -49 21 -116 146 -116
218 -1 96 -33 177 -70 177 -12 0 -6 70 9 97 7 14 7 31 1 54 -6 19 -10 35 -10
36 0 2 11 3 25 3 16 0 25 6 25 15 0 18 -21 20 -39 3 -11 -11 -12 -3 -7 42 3
30 8 76 11 101 6 62 18 90 55 133 18 20 30 42 26 51 -7 19 17 76 44 100 15 14
19 26 15 45 -4 18 -1 31 10 40 44 37 118 150 139 213 3 9 12 17 20 17 8 0 16
10 18 23 2 16 11 23 31 25 18 2 32 12 39 28 6 13 16 24 22 24 6 0 24 18 39 40
16 22 35 40 44 40 14 0 55 28 98 69 11 10 38 30 60 43 22 14 47 33 55 43 8 9
37 27 65 39 27 13 56 30 64 39 7 10 21 17 31 17 9 0 34 14 55 30 25 20 49 30
72 30 18 0 50 7 71 16 31 13 270 81 295 83 4 1 3 -7 -2 -17z m2349 -27 c19
-12 62 -31 95 -42 101 -35 150 -54 155 -62 20 -27 152 -125 300 -223 261 -173
407 -301 500 -438 21 -30 53 -74 73 -97 19 -23 58 -88 87 -145 29 -57 76 -139
103 -183 90 -143 89 -139 113 -448 9 -102 -11 -153 -83 -224 -59 -58 -200
-132 -268 -141 -22 -2 -47 -8 -56 -13 -15 -8 -17 25 -22 384 -5 431 -13 505
-68 679 -48 152 -122 258 -244 348 -65 49 -99 59 -214 66 -85 5 -104 3 -171
-19 -97 -32 -256 -98 -346 -143 -49 -25 -78 -34 -93 -29 -34 10 -117 99 -176
188 -58 87 -66 107 -37 107 49 -1 185 -32 268 -62 105 -37 127 -34 132 20 4
43 -53 98 -204 197 -139 90 -190 130 -204 156 -14 26 275 -73 429 -147 62 -29
122 -54 132 -54 28 0 40 30 24 60 -15 29 -269 280 -284 280 -5 0 -11 7 -15 15
-6 17 7 12 74 -30z m-1972 -436 c-12 -23 -56 -73 -96 -111 -69 -65 -77 -70
-111 -65 -37 5 -170 52 -184 66 -10 10 212 116 283 135 30 8 72 15 93 15 l38
1 -23 -41z m-458 -239 c29 -15 25 -33 -19 -91 -47 -62 -71 -132 -71 -206 0
-127 83 -181 211 -138 55 19 207 132 256 191 21 24 44 44 53 44 8 0 45 -21 82
-47 36 -27 113 -76 170 -111 183 -112 516 -396 480 -409 -18 -7 -70 -124 -78
-172 -7 -47 21 -100 67 -124 47 -25 113 -18 166 17 56 37 83 30 124 -32 18
-26 85 -108 149 -182 187 -218 310 -371 310 -389 0 -9 -34 -49 -75 -89 -71
-70 -95 -106 -80 -120 6 -7 15 3 50 53 12 18 13 17 12 -22 -3 -99 88 -113 181
-28 l40 35 35 -44 c20 -24 48 -65 62 -92 22 -42 25 -56 19 -101 -5 -41 -2 -59
10 -78 15 -23 22 -25 54 -19 35 7 32 2 -82 -107 -65 -63 -129 -120 -141 -126
-28 -15 -52 -8 -60 18 -4 10 -15 24 -27 30 -50 27 -264 -88 -217 -117 5 -3 21
1 34 10 33 22 35 21 22 -20 -23 -77 -80 -104 -304 -145 -65 -12 -145 -29 -178
-39 -34 -10 -66 -14 -75 -10 -15 8 -57 78 -49 83 2 1 30 16 63 32 127 65 236
212 236 319 0 63 -25 106 -75 130 -102 49 -241 -12 -317 -140 -20 -33 -39 -53
-48 -52 -8 2 -26 26 -40 54 -14 27 -35 63 -47 78 -13 16 -23 40 -23 53 0 15
-7 27 -17 30 -18 5 -63 66 -63 85 0 6 -14 26 -31 46 -17 20 -38 50 -45 69 -8
18 -25 40 -38 48 -14 10 -27 30 -30 50 -4 21 -13 35 -21 35 -8 0 -24 18 -35
39 -11 22 -38 60 -60 86 -22 25 -40 52 -40 60 0 7 21 20 46 29 155 53 276 203
244 301 -11 32 -61 85 -81 85 -5 0 -51 18 -103 40 -51 22 -108 40 -125 40 -66
0 -139 -47 -183 -117 -24 -40 -55 -43 -64 -8 -3 14 -16 32 -27 40 -11 8 -42
43 -68 77 -54 72 -54 78 11 159 22 27 45 69 52 91 10 35 9 45 -8 76 -25 47
-58 64 -113 59 -35 -4 -52 -13 -92 -53 -40 -39 -49 -45 -49 -28 0 27 66 103
104 120 30 13 30 13 6 14 -25 0 -78 -46 -127 -112 l-20 -27 -22 46 c-15 31
-26 43 -36 39 -9 -3 -15 0 -15 9 0 8 -13 22 -30 31 -16 10 -34 30 -41 45 -17
42 -54 61 -126 66 -57 4 -63 2 -63 -15 0 -11 14 -36 30 -57 38 -48 38 -76 -1
-136 -31 -48 -36 -52 -97 -64 -57 -12 -52 -57 8 -70 17 -4 42 -23 61 -46 36
-46 53 -48 99 -14 27 20 46 25 89 25 31 0 62 -4 69 -9 9 -5 15 -31 16 -71 2
-69 18 -90 67 -90 15 0 35 -3 44 -6 9 -4 68 -85 131 -181 63 -95 132 -193 153
-216 76 -84 79 -116 17 -185 -24 -27 -65 -80 -91 -117 -50 -70 -74 -85 -130
-85 -39 0 -40 20 -3 37 15 6 18 12 10 17 -7 4 -29 -10 -54 -32 -24 -22 -61
-49 -84 -60 -22 -11 -56 -35 -75 -53 -49 -46 -20 -49 46 -5 30 20 56 36 58 36
3 0 7 -26 10 -57 3 -32 9 -67 12 -79 5 -16 -6 -35 -43 -78 -30 -34 -52 -70
-56 -91 -4 -19 -15 -39 -26 -45 -27 -14 -95 -12 -135 4 -44 19 -135 103 -135
126 0 9 14 36 31 60 64 88 71 140 27 196 -12 14 -40 35 -62 45 l-41 19 43 -4
c36 -4 41 -2 31 10 -14 17 -72 18 -102 3 -12 -6 -34 -23 -48 -36 -16 -14 -29
-20 -33 -15 -6 9 -66 229 -102 372 -8 30 -12 66 -8 80 3 14 32 52 64 85 95 98
131 195 96 262 -15 30 -15 31 7 37 21 7 21 7 2 16 -11 5 -60 12 -110 17 l-90
8 -4 30 c-5 40 18 340 30 386 7 27 24 47 69 82 67 53 100 107 100 167 0 25 5
40 13 40 21 0 -16 20 -38 20 -46 1 -48 14 -15 81 18 35 41 75 52 89 18 23 85
70 100 70 3 0 9 -15 13 -32 20 -102 76 -135 152 -88 38 23 57 49 78 110 9 24
21 48 28 53 15 10 130 1 157 -13z m-200 -10 c0 -40 -93 -120 -140 -120 -35 0
-63 73 -42 108 10 14 77 29 140 31 35 1 42 -2 42 -19z m3915 -31 c11 -17 0
-20 -21 -4 -17 13 -17 14 -2 15 9 0 20 -5 23 -11z m-3468 -55 c67 -31 127 -62
133 -69 16 -19 -132 -153 -216 -197 -83 -43 -134 -52 -180 -33 -41 17 -54 41
-54 103 0 37 9 68 36 121 22 43 41 70 48 68 7 -3 21 10 31 29 26 48 55 45 202
-22z m2707 9 c4 -4 13 -8 19 -9 7 0 20 -2 30 -2 29 -3 19 -16 -38 -51 -69 -42
-129 -58 -150 -41 -29 24 -14 73 30 98 22 13 98 16 109 5z m-182 -53 c-6 -42
15 -86 47 -99 33 -14 90 4 156 49 69 47 98 55 133 35 30 -18 122 -144 122
-168 0 -7 -20 -49 -45 -93 -59 -103 -61 -111 -38 -143 27 -35 61 -37 107 -6
21 14 39 25 41 23 7 -8 24 -428 18 -444 -3 -11 -36 -51 -73 -90 -81 -88 -224
-344 -191 -344 6 0 17 12 25 28 l14 27 11 -28 c6 -16 11 -32 11 -36 0 -15 37
-41 67 -47 20 -4 46 1 78 15 27 12 49 20 50 19 4 -5 -34 -177 -55 -251 -36
-125 -37 -125 -87 -133 -26 -4 -65 -21 -95 -41 -27 -19 -52 -32 -55 -30 -8 8
37 88 52 94 16 6 21 33 6 33 -18 0 -65 -67 -102 -145 -44 -94 -69 -184 -69
-249 0 -36 -5 -48 -22 -60 -35 -22 -173 -56 -227 -56 -27 0 -68 -7 -91 -15
-33 -11 -52 -13 -79 -5 -20 5 -64 10 -97 10 -46 0 -65 4 -75 17 -12 14 -12 16
2 11 11 -5 21 4 33 28 21 45 20 66 -4 114 -26 52 -25 80 6 142 20 39 24 59 19
86 -5 29 -4 34 9 29 9 -4 16 -2 16 3 0 26 -119 17 -135 -10 -3 -6 -17 -10 -31
-10 -18 0 -31 11 -52 46 -15 25 -46 72 -69 105 -24 32 -43 65 -43 73 0 9 28
34 61 57 111 75 355 276 476 390 34 33 64 59 67 59 3 0 17 -24 31 -54 25 -52
47 -72 66 -60 12 7 11 57 -3 127 l-12 58 70 64 c85 77 104 113 80 150 -34 51
-94 29 -253 -93 -63 -48 -124 -93 -135 -101 -18 -13 -25 -12 -69 13 -44 24
-53 26 -84 16 -48 -16 -96 -73 -155 -189 -32 -62 -74 -126 -110 -165 -31 -35
-70 -87 -86 -116 l-28 -52 -21 29 c-11 15 -105 131 -208 258 -267 326 -266
324 -283 394 -9 34 -13 68 -10 76 3 8 31 27 63 44 32 16 101 57 153 91 133 88
233 150 318 198 l74 42 -6 -43 -6 -42 17 45 17 45 7 -63 c9 -97 55 -129 138
-96 79 32 221 218 221 291 0 43 20 64 88 95 78 34 200 77 223 78 12 0 14 -7
11 -30z m-347 -137 c-18 -99 -174 -263 -249 -263 -44 0 -56 16 -56 73 0 62 11
81 65 113 40 23 234 114 244 114 2 0 0 -17 -4 -37z m-3001 -46 c17 -12 17 -16
3 -43 -9 -16 -38 -51 -66 -79 -57 -55 -61 -50 -36 45 20 76 59 106 99 77z
m3855 -149 c1 -40 -77 -94 -101 -70 -16 16 -1 47 44 93 37 39 42 41 49 23 4
-10 8 -31 8 -46z m-1724 -84 c-99 -87 -127 -107 -171 -120 -82 -24 -93 -21
-169 56 -38 38 -67 71 -64 74 2 2 29 -4 59 -14 78 -27 157 -24 270 10 52 15
100 29 105 29 6 0 -8 -16 -30 -35z m-199 -169 c-22 -17 -36 -19 -36 -7 0 14
12 22 34 22 21 -1 21 -1 2 -15z m-1652 -26 c14 -17 26 -35 26 -41 0 -12 -115
-7 -127 6 -8 8 50 66 66 66 5 0 21 -14 35 -31z m458 14 c32 -29 19 -84 -40
-160 -44 -59 -108 -36 -134 48 -15 51 -4 86 35 109 40 25 113 27 139 3z m1092
-115 c26 -29 58 -70 73 -91 25 -37 26 -38 7 -52 -25 -19 -80 -35 -121 -35 -74
0 -111 43 -93 109 11 40 64 121 79 121 5 0 30 -24 55 -52z m176 7 c20 -24 6
-28 -15 -5 -10 11 -13 20 -8 20 6 0 16 -7 23 -15z m-2710 -26 c0 -5 -7 -9 -15
-9 -9 0 -15 9 -15 21 0 18 2 19 15 9 8 -7 15 -16 15 -21z m10 -82 c0 -16 -3
-17 -15 -7 -8 7 -15 24 -15 39 1 25 1 25 15 7 8 -11 15 -29 15 -39z m940 48
c0 -10 -50 -24 -65 -19 -28 11 -15 24 25 24 22 0 40 -2 40 -5z m240 -127 c0
-10 -6 -18 -13 -18 -23 0 -37 23 -37 60 l0 35 25 -30 c13 -16 24 -38 25 -47z
m-1170 36 c0 -8 -5 -12 -10 -9 -6 4 -8 11 -5 16 9 14 15 11 15 -7z m603 -40
c11 -4 4 -15 -26 -44 -29 -26 -44 -35 -49 -27 -10 15 -10 61 -1 70 8 8 56 9
76 1z m3098 -24 c10 -6 19 -19 19 -30 0 -18 -7 -19 -74 -17 -78 2 -83 7 -32
38 35 21 58 24 87 9z m838 -46 c-51 -53 -87 -77 -70 -47 16 27 32 45 70 76 50
42 51 23 0 -29z m-3851 24 c7 -7 12 -30 12 -53 0 -50 -37 -113 -101 -169 l-43
-40 -7 25 c-4 13 -7 51 -8 84 -1 70 21 114 71 145 38 23 59 25 76 8z m1149
-21 c13 -13 8 -17 -50 -36 -67 -23 -143 -78 -136 -99 4 -13 15 -8 111 50 115
71 268 30 268 -70 0 -70 -87 -167 -195 -218 -52 -25 -100 -31 -110 -14 -3 5
-11 7 -18 4 -8 -3 -30 26 -56 72 -24 43 -51 84 -60 93 -9 9 -22 33 -29 53 -11
32 -11 42 2 67 20 38 80 87 131 106 47 17 121 13 142 -8z m2743 -143 c0 -63
-5 -124 -10 -135 -26 -48 -133 -66 -170 -29 -44 44 -15 114 90 213 39 37 76
67 81 67 5 0 9 -52 9 -116z m-959 82 c-18 -22 -120 -90 -126 -84 -8 8 36 59
69 79 38 23 75 26 57 5z m-1936 -593 c10 -21 38 -71 63 -112 35 -58 43 -80 39
-105 -9 -53 -170 -370 -190 -374 -10 -2 -29 8 -42 22 -21 22 -28 25 -52 16
l-28 -10 24 20 c13 11 34 20 47 20 13 0 24 5 24 10 0 19 -56 10 -90 -15 -19
-14 -46 -25 -60 -25 -30 0 -140 66 -140 84 0 29 42 65 93 80 28 8 63 23 76 32
26 19 60 87 61 122 0 13 21 64 48 115 26 51 52 107 59 125 16 45 46 43 68 -5z
m1556 7 c10 -6 19 -19 19 -29 0 -38 -107 -102 -145 -87 -21 8 -18 55 5 94 17
28 25 32 61 32 22 0 49 -5 60 -10z m1199 -131 c0 -20 -78 -178 -107 -215 -28
-38 -106 -94 -130 -94 -18 0 -17 54 2 117 17 59 79 133 144 175 46 28 91 37
91 17z m-3583 -21 c14 -13 23 -33 23 -52 0 -37 -32 -105 -64 -135 l-25 -23
-44 69 c-61 95 -64 107 -33 138 34 34 109 35 143 3z m2743 -14 c0 -33 -29 -94
-44 -94 -14 0 -46 51 -46 73 0 21 38 47 67 47 18 0 23 -6 23 -26z m-2270 4 c0
-16 -82 -138 -92 -138 -13 0 -21 72 -12 99 10 28 46 51 82 51 12 0 22 -6 22
-12z m150 -97 c0 -36 -88 -116 -107 -98 -4 4 95 117 103 117 2 0 4 -9 4 -19z
m350 -11 c0 -11 -9 -24 -21 -30 -25 -14 -32 -9 -23 14 5 14 9 15 15 4 6 -9 9
-4 9 15 0 16 4 26 10 22 6 -3 10 -15 10 -25z m1630 -82 c0 -10 -7 -18 -15 -18
-11 0 -15 11 -15 38 1 35 2 36 15 18 8 -11 15 -28 15 -38z m-1565 -15 c38 -57
34 -94 -18 -147 -79 -83 -137 -70 -137 32 0 64 23 117 59 137 44 24 68 18 96
-22z m634 3 c-68 -28 -109 -55 -173 -115 -60 -57 -45 -20 21 50 53 57 114 89
168 89 l40 0 -56 -24z m121 -53 c17 -21 20 -35 15 -63 -29 -167 -260 -368
-319 -277 -16 24 -35 90 -43 147 -4 33 0 40 65 103 116 111 235 149 282 90z
m-907 -156 c37 -57 127 -19 188 79 l21 35 49 -73 c27 -40 59 -85 71 -100 12
-15 19 -31 15 -34 -16 -16 -419 34 -440 55 -13 13 -3 47 35 111 l33 55 5 -51
c3 -27 13 -62 23 -77z m-507 -57 c15 -6 48 -29 74 -50 85 -71 177 -103 432
-151 65 -12 115 -25 113 -29 -3 -4 4 -29 16 -54 19 -43 19 -55 10 -189 -6 -78
-13 -198 -17 -267 -3 -69 -12 -165 -19 -213 -19 -126 -39 -145 -214 -199 -99
-30 -255 -98 -396 -170 -73 -37 -137 -80 -325 -215 -83 -60 -240 -150 -292
-169 -43 -15 -86 -18 -112 -8 -13 5 -9 14 24 50 65 70 47 129 -26 89 -19 -10
-56 -42 -84 -72 -40 -43 -55 -53 -82 -53 -41 0 -78 10 -78 20 0 5 35 39 79 77
43 37 86 80 95 96 19 30 14 62 -12 76 -42 22 -149 -62 -224 -176 l-43 -65 -65
6 c-36 3 -77 9 -92 14 l-28 7 68 76 c86 95 114 141 110 176 -5 45 -32 39 -111
-26 -81 -66 -125 -112 -162 -172 -29 -45 -39 -46 -118 -16 l-58 22 79 95 c111
134 188 203 348 309 173 116 382 280 498 391 184 176 399 470 456 624 21 55
81 154 102 168 17 10 22 10 54 -2z m1935 -16 c9 -11 10 -20 3 -31 -9 -15 -155
-85 -162 -78 -8 8 30 77 54 100 31 29 84 34 105 9z m449 -129 c353 -443 506
-582 747 -679 212 -85 547 -260 677 -353 103 -74 324 -254 330 -269 3 -9 6
-21 6 -28 0 -23 -158 -86 -217 -86 -29 0 -35 5 -53 43 -20 42 -179 231 -212
251 -26 16 -52 -4 -56 -42 -5 -46 30 -104 114 -192 42 -44 73 -84 69 -90 -9
-14 -118 -13 -137 3 -8 6 -24 28 -36 47 -11 19 -36 49 -54 66 -35 34 -183 128
-218 139 -29 9 -50 -11 -50 -47 0 -32 17 -51 140 -158 l64 -55 -30 -6 c-16 -4
-60 -7 -98 -8 -59 -1 -91 7 -225 53 -86 30 -176 59 -201 66 -107 26 -334 116
-670 264 -140 62 -298 130 -352 150 -108 41 -169 81 -198 129 -24 38 -25 70
-5 127 31 88 14 223 -42 333 -37 75 -31 86 57 108 41 11 130 46 197 79 136 67
213 130 290 237 25 36 49 61 53 56 4 -4 53 -66 110 -138z m-2670 -64 c0 -5 -9
-19 -20 -32 l-21 -24 16 33 c15 31 25 41 25 23z"/>
<path d="M3976 5908 c-32 -45 -13 -128 29 -128 34 0 47 88 19 128 -8 12 -19
22 -24 22 -5 0 -16 -10 -24 -22z"/>
<path d="M3820 5905 c-20 -24 -6 -145 24 -210 27 -60 52 -71 62 -29 13 52 -24
210 -56 239 -15 14 -19 14 -30 0z"/>
<path d="M3074 4204 c-82 -40 -154 -138 -154 -210 0 -39 38 -74 80 -74 44 0
144 57 193 109 80 85 71 152 -22 180 -49 14 -59 14 -97 -5z m124 -40 c36 -25
28 -59 -27 -114 -56 -56 -117 -90 -165 -92 -45 -2 -56 8 -56 46 0 55 70 146
130 169 30 11 96 7 118 -9z"/>
<path d="M3290 4004 c-47 -27 -82 -63 -73 -77 2 -4 11 -3 19 4 21 17 17 -1
-11 -46 -26 -42 -32 -80 -14 -90 49 -31 209 99 209 170 0 20 -48 65 -69 65 -9
0 -36 -12 -61 -26z m94 -41 c5 -11 -6 -29 -31 -56 -37 -38 -110 -83 -120 -74
-9 9 47 105 73 126 32 25 69 27 78 4z"/>
<path d="M3591 3406 c-44 -45 -51 -78 -18 -84 16 -3 45 21 96 82 18 23 20 30
10 37 -26 16 -45 9 -88 -35z"/>
<path d="M3933 3300 c-47 -27 -82 -65 -70 -76 2 -3 28 11 57 31 29 20 55 33
58 30 3 -3 -8 -22 -25 -43 -60 -75 -81 -148 -63 -223 29 -121 153 -142 267
-45 39 33 83 119 83 163 0 70 -58 142 -143 178 -56 23 -105 19 -164 -15z m183
-34 c88 -41 118 -98 90 -171 -18 -46 -89 -119 -132 -135 -136 -52 -211 79
-131 231 22 43 42 67 67 80 44 24 44 24 106 -5z"/>
<path d="M2375 3280 c-86 -42 -143 -92 -111 -98 10 -2 31 9 47 24 37 36 37 21
-1 -36 -42 -64 -57 -135 -37 -183 35 -82 110 -73 211 26 67 66 106 129 106
173 0 32 -71 103 -104 105 -17 1 -18 2 -3 6 21 5 13 23 -11 22 -9 0 -53 -18
-97 -39z m164 -52 c11 -7 22 -20 24 -30 17 -63 -143 -218 -225 -218 -33 0 -48
18 -48 60 0 68 76 193 123 203 33 8 104 -1 126 -15z"/>
<path d="M3544 3121 c-82 -50 -196 -202 -210 -279 -13 -67 32 -111 100 -98 81
15 226 161 226 228 0 39 -39 76 -89 84 -23 4 -41 10 -41 15 0 4 14 17 30 29
26 18 33 20 47 9 13 -12 15 -11 12 6 -6 27 -37 29 -75 6z m56 -106 c40 -21 39
-51 -5 -108 -74 -97 -208 -156 -229 -101 -12 31 56 168 101 204 31 24 92 26
133 5z"/>
<path d="M4215 2677 c-52 -44 -40 -187 15 -187 25 0 77 71 86 118 15 81 -42
121 -101 69z m83 -35 c5 -46 -40 -115 -71 -110 -39 5 -36 90 5 128 33 31 62
23 66 -18z"/>
<path d="M5364 4182 c-39 -25 -66 -63 -103 -145 -17 -38 -53 -91 -85 -126 -31
-34 -56 -69 -56 -78 1 -12 21 4 60 47 40 44 59 59 60 47 0 -32 30 -77 54 -83
56 -14 177 71 215 150 26 53 26 78 1 101 -30 28 -100 15 -163 -29 -29 -19 -53
-32 -55 -26 -6 16 27 67 64 100 33 29 42 32 83 27 25 -2 55 -8 66 -12 19 -7
19 -7 -1 15 -31 32 -99 37 -140 12z m134 -138 c2 -12 -13 -38 -39 -68 -66 -75
-147 -106 -183 -70 -20 19 -20 28 -1 64 37 71 215 130 223 74z"/>
<path d="M4862 4000 c-42 -39 -40 -102 4 -108 29 -4 83 34 90 64 6 21 2 31
-16 46 -29 23 -51 23 -78 -2z m48 -55 c-24 -25 -50 -33 -50 -15 0 9 47 39 64
40 5 0 -1 -11 -14 -25z"/>
<path d="M4450 3943 c-73 -32 -137 -96 -111 -112 8 -5 4 -27 -14 -74 -33 -88
-32 -112 5 -149 27 -27 36 -30 71 -25 52 7 111 46 149 98 44 61 47 98 17 167
-14 31 -27 68 -29 82 -4 31 -37 36 -88 13z m75 -24 c12 -19 -5 -23 -22 -6 -16
16 -16 17 -1 17 9 0 20 -5 23 -11z m1 -73 c46 -46 46 -83 -3 -137 -45 -49
-100 -79 -148 -79 -28 0 -37 5 -45 24 -16 42 16 119 77 187 45 49 73 51 119 5z"/>
<path d="M5266 3049 c-36 -28 -72 -93 -111 -199 -19 -49 -45 -106 -59 -127
-34 -49 -34 -78 -1 -40 27 30 29 29 40 -35 3 -22 15 -44 28 -53 48 -34 113
-10 202 76 105 100 122 185 49 248 -46 41 -78 39 -150 -7 -32 -21 -65 -42 -73
-46 -7 -5 1 19 19 53 32 59 89 121 112 121 5 0 28 -17 49 -39 44 -44 48 -42
18 9 -39 64 -76 76 -123 39z m138 -160 c17 -13 26 -30 26 -49 0 -63 -133 -202
-207 -216 -31 -6 -39 -3 -55 16 -47 57 1 175 98 239 56 36 100 40 138 10z"/>
</g>
</svg>
